<?xml version='1.0' encoding='iso-8859-1'?>
<svg version="1.1" xmlns="http://www.w3.org/2000/svg" viewBox="0 0 137.144 137.144" xmlns:xlink="http://www.w3.org/1999/xlink" enable-background="new 0 0 137.144 137.144">
  <g>
    <g>
      <path d="M109.715,0H27.429C12.28,0,0,12.28,0,27.429v82.286c0,15.149,12.28,27.429,27.429,27.429h82.286    c15.149,0,27.429-12.28,27.429-27.429V27.429C137.144,12.28,124.864,0,109.715,0z M123.43,102.858    c0,11.362-9.21,20.572-20.571,20.572H34.286c-11.361,0-20.572-9.21-20.572-20.572V34.286c0-11.362,9.21-20.572,20.572-20.572    h68.572c11.361,0,20.571,9.21,20.571,20.572V102.858z M89.144,68.572c-0.022-13.155,0-13.715,0-13.715s1.412-20.274-20.572-20.572    C48.433,34.012,48,54.858,48,54.858s-0.023-0.892,0,13.715c0.02,12.634-13.714,20.571-13.714,20.571h20.571    c0,7.574,6.14,13.714,13.714,13.714s13.715-6.14,13.715-13.714h20.571C102.858,89.144,89.165,80.98,89.144,68.572z"/>
    </g>
  </g>
</svg>
